<svg class="animated" id="freepik_stories-waiting" xmlns="http://www.w3.org/2000/svg" viewBox="0 0 750 500" version="1.1" xmlns:xlink="http://www.w3.org/1999/xlink" xmlns:svgjs="http://svgjs.com/svgjs"><style>svg#freepik_stories-waiting:not(.animated) .animable {opacity: 0;}svg#freepik_stories-waiting.animated #freepik--Plant--inject-6 {animation: 6s Infinite  linear wind;animation-delay: 0s;}svg#freepik_stories-waiting.animated #freepik--Clock--inject-6 {animation: 6s Infinite  linear spin;animation-delay: 0s;}            @keyframes wind {                0% {                    transform: rotate( 0deg );                }                25% {                    transform: rotate( 1deg );                }                75% {                    transform: rotate( -1deg );                }            }                 @keyframes spin {             from {                 transform: rotate(0);               }               to {                 transform: rotate(360deg);               }         }     </style><g id="freepik--background-simple--inject-6" class="animable" style="transform-origin: 378.768px 252.365px;"><path d="M700,136S661,46,538,27s-177.89,15-213,61S265,78,162,74c-36.5-1.42-77.72,5.12-102.79,34.33-19.3,22.49-26.82,57.33-8.5,82.7,16.23,22.48,53.37,56.32,35.29,87-23,39-53,99-21,144s66,64,165,45,134-58,182-34,147,61,206,47,40-86,36-111,61-51,63-118S711,161,700,136Z" style="fill: rgb(146, 227, 169); transform-origin: 378.768px 252.365px;" id="elngc1qa35nza" class="animable"></path><g id="eldbbz5lpftsd"><path d="M700,136S661,46,538,27s-177.89,15-213,61S265,78,162,74c-36.5-1.42-77.72,5.12-102.79,34.33-19.3,22.49-26.82,57.33-8.5,82.7,16.23,22.48,53.37,56.32,35.29,87-23,39-53,99-21,144s66,64,165,45,134-58,182-34,147,61,206,47,40-86,36-111,61-51,63-118S711,161,700,136Z" style="fill: rgb(255, 255, 255); opacity: 0.7; transform-origin: 378.768px 252.365px;" class="animable"></path></g></g><g id="freepik--Lines--inject-6" class="animable" style="transform-origin: 377px 306.5px;"><line x1="708" y1="302" x2="46" y2="302" style="fill: none; stroke: rgb(38, 50, 56); stroke-linecap: round; stroke-linejoin: round; transform-origin: 377px 302px;" id="elml6sbvu0o5" class="animable"></line><line x1="708" y1="311" x2="46" y2="311" style="fill: none; stroke: rgb(38, 50, 56); stroke-linecap: round; stroke-linejoin: round; transform-origin: 377px 311px;" id="elk8p18rzt8" class="animable"></line></g><g id="freepik--Plant--inject-6" class="animable" style="transform-origin: 584.295px 349.976px;"><ellipse cx="583.15" cy="297.16" rx="9.19" ry="24.11" style="fill: rgb(146, 227, 169); stroke: rgb(38, 50, 56); stroke-miterlimit: 10; transform-origin: 583.15px 297.16px;" id="el5hciocjyfdr" class="animable"></ellipse><path d="M611.71,282.29c-2.87,9-8.39,15.37-12.33,14.12s-4.8-9.6-1.93-18.64,8.4-15.37,12.34-14.12S614.58,273.25,611.71,282.29Z" style="fill: rgb(146, 227, 169); stroke: rgb(38, 50, 56); stroke-miterlimit: 10; transform-origin: 604.582px 280.03px;" id="elphnozlwj6ie" class="animable"></path><path d="M544.26,336.84c-9.36-1.59-16.39-6.18-15.7-10.25s8.84-6.09,18.19-4.5,16.39,6.17,15.7,10.24S553.61,338.42,544.26,336.84Z" style="fill: rgb(146, 227, 169); stroke: rgb(38, 50, 56); stroke-miterlimit: 10; transform-origin: 545.505px 329.462px;" id="elcx2rrtj4mfv" class="animable"></path><path d="M620.37,314.54c-7.82,7.75-17,11.12-20.63,7.51s-.14-12.81,7.68-20.56S624.47,290.38,628,294,628.18,306.79,620.37,314.54Z" style="fill: rgb(146, 227, 169); stroke: rgb(38, 50, 56); stroke-miterlimit: 10; transform-origin: 613.852px 308.021px;" id="eln7pu1udpz9" class="animable"></path><path d="M566.51,293.28c7.56,11,9.81,22.53,5,25.82s-14.78-2.92-22.34-13.89-9.81-22.52-5-25.82S559,282.32,566.51,293.28Z" style="fill: rgb(146, 227, 169); stroke: rgb(38, 50, 56); stroke-miterlimit: 10; transform-origin: 557.84px 299.244px;" id="ela9fiy7wg4n6" class="animable"></path><line x1="583.79" y1="320.08" x2="584.5" y2="393.43" style="fill: none; stroke: rgb(38, 50, 56); stroke-linecap: round; stroke-miterlimit: 10; transform-origin: 584.145px 356.755px;" id="elwp7zdrxqlz" class="animable"></line><line x1="582.93" y1="288.2" x2="583.79" y2="320.08" style="fill: none; stroke: rgb(38, 50, 56); stroke-linecap: round; stroke-miterlimit: 10; transform-origin: 583.36px 304.14px;" id="elotsti8ydaqd" class="animable"></line><line x1="583" y1="283" x2="582.93" y2="285.44" style="fill: none; stroke: rgb(38, 50, 56); stroke-linecap: round; stroke-miterlimit: 10; transform-origin: 582.965px 284.22px;" id="el78xghpjifn7" class="animable"></line><path d="M571.51,317.54a92.76,92.76,0,0,1,9.08,34.78v45.37" style="fill: none; stroke: rgb(38, 50, 56); stroke-linecap: round; stroke-miterlimit: 10; transform-origin: 576.05px 357.615px;" id="elohcqc21pi4" class="animable"></path><path d="M555.71,293.38a109,109,0,0,1,15.8,24.16" style="fill: none; stroke: rgb(38, 50, 56); stroke-linecap: round; stroke-miterlimit: 10; transform-origin: 563.61px 305.46px;" id="elxj0q85dp4ih" class="animable"></path><path d="M550.75,288.12s1,.87,2.51,2.54" style="fill: none; stroke: rgb(38, 50, 56); stroke-linecap: round; stroke-miterlimit: 10; transform-origin: 552.005px 289.39px;" id="elwmxrkkxa2ro" class="animable"></path><path d="M600.31,320.94a108.68,108.68,0,0,0-14.9,29.58" style="fill: none; stroke: rgb(38, 50, 56); stroke-linecap: round; stroke-miterlimit: 10; transform-origin: 592.86px 335.73px;" id="elqcwwsw2bpk" class="animable"></path><path d="M610.89,308.79a86.4,86.4,0,0,0-10.58,12.15" style="fill: none; stroke: rgb(38, 50, 56); stroke-linecap: round; stroke-miterlimit: 10; transform-origin: 605.6px 314.865px;" id="elw6bxpjoa2fm" class="animable"></path><path d="M622.18,300.18a48,48,0,0,0-8,5.71" style="fill: none; stroke: rgb(38, 50, 56); stroke-linecap: round; stroke-miterlimit: 10; transform-origin: 618.18px 303.035px;" id="el3nvzu8ne3id" class="animable"></path><path d="M599.92,294.17c-5.09,16-11.92,39.71-15.11,60.26" style="fill: none; stroke: rgb(38, 50, 56); stroke-linecap: round; stroke-miterlimit: 10; transform-origin: 592.365px 324.3px;" id="eleavw57ormwq" class="animable"></path><path d="M603,284.66c-.91,2.7-2,5.91-3.11,9.51" style="fill: none; stroke: rgb(38, 50, 56); stroke-linecap: round; stroke-miterlimit: 10; transform-origin: 601.445px 289.415px;" id="el38pao3kdkaj" class="animable"></path><path d="M606.21,275.46s-.89,2.46-2.33,6.66" style="fill: none; stroke: rgb(38, 50, 56); stroke-linecap: round; stroke-miterlimit: 10; transform-origin: 605.045px 278.79px;" id="elywalo3srhdm" class="animable"></path><path d="M562,330.11c6.36,2.41,15.06,9.14,18.08,18" style="fill: none; stroke: rgb(38, 50, 56); stroke-linecap: round; stroke-miterlimit: 10; transform-origin: 571.04px 339.11px;" id="elkaqp1mo3rui" class="animable"></path><path d="M550.22,327.72A40,40,0,0,1,562,330.11" style="fill: none; stroke: rgb(38, 50, 56); stroke-linecap: round; stroke-miterlimit: 10; transform-origin: 556.11px 328.915px;" id="elzekw7eo8gr" class="animable"></path><path d="M542.61,327.91s1.13-.16,3-.24" style="fill: none; stroke: rgb(38, 50, 56); stroke-linecap: round; stroke-miterlimit: 10; transform-origin: 544.11px 327.79px;" id="elswwkne689c" class="animable"></path><path d="M562.61,372.09c-8.6,4-17,4.24-18.73.5s3.8-10,12.4-14,17-4.23,18.74-.49S571.21,368.08,562.61,372.09Z" style="fill: rgb(146, 227, 169); stroke: rgb(38, 50, 56); stroke-miterlimit: 10; transform-origin: 559.451px 365.343px;" id="el5yti8a21p5" class="animable"></path><path d="M562.34,361.2a40.16,40.16,0,0,1,11-4.71,5.5,5.5,0,0,1,5.91.11c1.17.77.78,6.59.78,6.59v30.24" style="fill: none; stroke: rgb(38, 50, 56); stroke-linecap: round; stroke-miterlimit: 10; transform-origin: 571.216px 374.556px;" id="elvkrsgh6qjk" class="animable"></path><path d="M556.18,365.69s.84-.78,2.34-1.9" style="fill: none; stroke: rgb(38, 50, 56); stroke-linecap: round; stroke-miterlimit: 10; transform-origin: 557.35px 364.74px;" id="elnxkn9fnq9qq" class="animable"></path><path d="M624.33,336.84c9.36-1.59,16.39-6.18,15.7-10.25s-8.84-6.09-18.19-4.5-16.39,6.17-15.7,10.24S615,338.42,624.33,336.84Z" style="fill: rgb(146, 227, 169); stroke: rgb(38, 50, 56); stroke-miterlimit: 10; transform-origin: 623.085px 329.462px;" id="elw8w992sckzo" class="animable"></path><path d="M606.81,330a30.33,30.33,0,0,0-3.33,1.46A23.33,23.33,0,0,0,591,352.29v40" style="fill: none; stroke: rgb(38, 50, 56); stroke-linecap: round; stroke-miterlimit: 10; transform-origin: 598.905px 361.145px;" id="elrq6pdvaof6o" class="animable"></path><path d="M619.35,327.67A41,41,0,0,0,606.81,330" style="fill: none; stroke: rgb(38, 50, 56); stroke-linecap: round; stroke-miterlimit: 10; transform-origin: 613.08px 328.835px;" id="eligrv1o6yjhb" class="animable"></path><path d="M626,327.91s-.74-.11-2-.19" style="fill: none; stroke: rgb(38, 50, 56); stroke-linecap: round; stroke-miterlimit: 10; transform-origin: 625px 327.815px;" id="elyhkckkbocgq" class="animable"></path><g id="elnh8n2ob9778"><ellipse cx="618.67" cy="357.74" rx="7.48" ry="17.18" style="fill: rgb(146, 227, 169); stroke: rgb(38, 50, 56); stroke-miterlimit: 10; transform-origin: 618.67px 357.74px; transform: rotate(-60.04deg);" class="animable"></ellipse></g><path d="M616.94,354a41,41,0,0,0-11.17-6.17s-10.2-1.68-12.53,4.91" style="fill: none; stroke: rgb(38, 50, 56); stroke-linecap: round; stroke-miterlimit: 10; transform-origin: 605.09px 350.819px;" id="elwy9lqtb3rej" class="animable"></path><path d="M621.9,358.39s-.51-.56-1.45-1.44" style="fill: none; stroke: rgb(38, 50, 56); stroke-linecap: round; stroke-miterlimit: 10; transform-origin: 621.175px 357.67px;" id="elhxo68i9v51u" class="animable"></path><path d="M594.79,353.11s-12-2.33-12,5.82,8.53,14.73,12,24,10.08,9.69,13.57.39S606.81,357,594.79,353.11Z" style="fill: rgb(146, 227, 169); stroke: rgb(38, 50, 56); stroke-miterlimit: 10; transform-origin: 596.117px 371.447px;" id="ely9ynsqttme9" class="animable"></path><path d="M586.65,353.5s10.47,4.26,13.57,17.83" style="fill: rgb(146, 227, 169); stroke: rgb(38, 50, 56); stroke-miterlimit: 10; transform-origin: 593.435px 362.415px;" id="el8ij9lxlhogk" class="animable"></path><line x1="587.43" y1="371.33" x2="587.43" y2="393.43" style="fill: none; stroke: rgb(38, 50, 56); stroke-linecap: round; stroke-miterlimit: 10; transform-origin: 587.43px 382.38px;" id="elox2lz3cg39p" class="animable"></line><path d="M606.68,436.46A94.19,94.19,0,0,0,611,408.18a85,85,0,0,0-1.74-17.3h-49a85,85,0,0,0-1.74,17.3,94.19,94.19,0,0,0,4.35,28.28Z" style="fill: rgb(38, 50, 56); transform-origin: 584.76px 413.67px;" id="eldfx9xhfm86" class="animable"></path><path d="M559.06,399c-.14,1.33-.24,2.68-.32,4h52.13c-.08-1.36-.18-2.71-.32-4Z" style="fill: rgb(122, 122, 122); transform-origin: 584.805px 401px;" id="elss1k8nuf3h" class="animable"></path><path d="M610.32,419.63c.16-1.34.3-2.69.41-4H558.88c.11,1.35.25,2.7.41,4Z" style="fill: rgb(122, 122, 122); transform-origin: 584.805px 417.63px;" id="el5n7jzez4oej" class="animable"></path><path d="M564.91,408.4a2.11,2.11,0,1,1-2.11-2A2.07,2.07,0,0,1,564.91,408.4Z" style="fill: rgb(140, 140, 140); transform-origin: 562.803px 408.51px;" id="elwo4vstz543k" class="animable"></path><path d="M575.46,408.4a2.11,2.11,0,1,1-2.11-2A2.07,2.07,0,0,1,575.46,408.4Z" style="fill: rgb(140, 140, 140); transform-origin: 573.353px 408.51px;" id="elli9k19arhct" class="animable"></path><path d="M586,408.4a2.11,2.11,0,1,1-2.11-2A2.07,2.07,0,0,1,586,408.4Z" style="fill: rgb(140, 140, 140); transform-origin: 583.893px 408.51px;" id="el4bf3v812g22" class="animable"></path><path d="M596.56,408.4a2.11,2.11,0,1,1-2.11-2A2.07,2.07,0,0,1,596.56,408.4Z" style="fill: rgb(140, 140, 140); transform-origin: 594.453px 408.51px;" id="ela5ephm6j7rw" class="animable"></path><path d="M607.11,408.4a2.11,2.11,0,1,1-2.11-2A2.07,2.07,0,0,1,607.11,408.4Z" style="fill: rgb(140, 140, 140); transform-origin: 605.003px 408.51px;" id="ellv5h5vuuhu" class="animable"></path></g><g id="freepik--Window--inject-6" class="animable" style="transform-origin: 567.03px 149.87px;"><path d="M426.68,56.87v186h68.05v-186ZM491.3,61V88.45H463V61Zm-32.55,0V88.45H430.11V61ZM430.11,92.81h28.64v27.24H430.11ZM491.3,238.73H430.11v-114H491.3ZM463,120.05V92.81H491.3v27.24Z" style="fill: none; stroke: rgb(38, 50, 56); stroke-linecap: round; stroke-linejoin: round; transform-origin: 460.705px 149.87px;" id="eljy42ykxhub" class="animable"></path><path d="M494.46,56.87v186h68.05v-186ZM559.08,61V88.45H530.76V61Zm-32.55,0V88.45H497.89V61ZM497.89,92.81h28.64v27.24H497.89Zm61.19,145.92H497.89v-114h61.19ZM530.76,120.05V92.81h28.32v27.24Z" style="fill: none; stroke: rgb(38, 50, 56); stroke-linecap: round; stroke-linejoin: round; transform-origin: 528.485px 149.87px;" id="el9zbyibgq63" class="animable"></path><line x1="476.07" y1="155.64" x2="458.99" y2="174.52" style="fill: none; stroke: rgb(38, 50, 56); stroke-linecap: round; stroke-linejoin: round; transform-origin: 467.53px 165.08px;" id="ella11ec9vfaf" class="animable"></line><line x1="480.31" y1="150.96" x2="477.59" y2="153.96" style="fill: none; stroke: rgb(38, 50, 56); stroke-linecap: round; stroke-linejoin: round; transform-origin: 478.95px 152.46px;" id="elv43iosnssui" class="animable"></line><line x1="440.41" y1="188.29" x2="436.91" y2="191.94" style="fill: none; stroke: rgb(38, 50, 56); stroke-linecap: round; stroke-linejoin: round; transform-origin: 438.66px 190.115px;" id="ela8uurra4ht4" class="animable"></line><line x1="463.1" y1="164.62" x2="443.03" y2="185.56" style="fill: none; stroke: rgb(38, 50, 56); stroke-linecap: round; stroke-linejoin: round; transform-origin: 453.065px 175.09px;" id="el09ajwe8z8nk3" class="animable"></line><line x1="544.9" y1="161.41" x2="527.82" y2="180.29" style="fill: none; stroke: rgb(38, 50, 56); stroke-linecap: round; stroke-linejoin: round; transform-origin: 536.36px 170.85px;" id="eldmmweqod29" class="animable"></line><line x1="549.14" y1="156.72" x2="546.42" y2="159.72" style="fill: none; stroke: rgb(38, 50, 56); stroke-linecap: round; stroke-linejoin: round; transform-origin: 547.78px 158.22px;" id="el0lg8u1xztvy" class="animable"></line><line x1="509.25" y1="194.05" x2="505.75" y2="197.7" style="fill: none; stroke: rgb(38, 50, 56); stroke-linecap: round; stroke-linejoin: round; transform-origin: 507.5px 195.875px;" id="elvrhh636985" class="animable"></line><line x1="531.93" y1="170.38" x2="511.86" y2="191.32" style="fill: none; stroke: rgb(38, 50, 56); stroke-linecap: round; stroke-linejoin: round; transform-origin: 521.895px 180.85px;" id="elwut9yckqfp" class="animable"></line><path d="M571.6,56.87v186h68v-186ZM636.22,61V88.45H607.9V61Zm-32.55,0V88.45H575V61ZM575,92.81h28.64v27.24H575Zm61.19,145.92H575v-114h61.19ZM607.9,120.05V92.81h28.32v27.24Z" style="fill: none; stroke: rgb(38, 50, 56); stroke-linecap: round; stroke-linejoin: round; transform-origin: 605.6px 149.87px;" id="elfow5qyulu9o" class="animable"></path><path d="M639.38,56.87v186h68v-186ZM704,61V88.45H675.68V61Zm-32.55,0V88.45H642.81V61ZM642.81,92.81h28.64v27.24H642.81ZM704,238.73H642.81v-114H704ZM675.68,120.05V92.81H704v27.24Z" style="fill: none; stroke: rgb(38, 50, 56); stroke-linecap: round; stroke-linejoin: round; transform-origin: 673.38px 149.87px;" id="eleaozpye8rx" class="animable"></path><line x1="620.99" y1="155.64" x2="603.91" y2="174.52" style="fill: none; stroke: rgb(38, 50, 56); stroke-linecap: round; stroke-linejoin: round; transform-origin: 612.45px 165.08px;" id="elf1c6rk6gfbm" class="animable"></line><line x1="625.23" y1="150.96" x2="622.51" y2="153.96" style="fill: none; stroke: rgb(38, 50, 56); stroke-linecap: round; stroke-linejoin: round; transform-origin: 623.87px 152.46px;" id="elav5blq4h6e" class="animable"></line><line x1="585.33" y1="188.29" x2="581.83" y2="191.94" style="fill: none; stroke: rgb(38, 50, 56); stroke-linecap: round; stroke-linejoin: round; transform-origin: 583.58px 190.115px;" id="elpkw5lympkj" class="animable"></line><line x1="608.02" y1="164.62" x2="587.95" y2="185.56" style="fill: none; stroke: rgb(38, 50, 56); stroke-linecap: round; stroke-linejoin: round; transform-origin: 597.985px 175.09px;" id="elkquze2vk27n" class="animable"></line><line x1="689.82" y1="161.41" x2="672.74" y2="180.29" style="fill: none; stroke: rgb(38, 50, 56); stroke-linecap: round; stroke-linejoin: round; transform-origin: 681.28px 170.85px;" id="eli58q6z65fd" class="animable"></line><line x1="694.06" y1="156.72" x2="691.34" y2="159.72" style="fill: none; stroke: rgb(38, 50, 56); stroke-linecap: round; stroke-linejoin: round; transform-origin: 692.7px 158.22px;" id="elb9xbsznflds" class="animable"></line><line x1="654.17" y1="194.05" x2="650.67" y2="197.7" style="fill: none; stroke: rgb(38, 50, 56); stroke-linecap: round; stroke-linejoin: round; transform-origin: 652.42px 195.875px;" id="el4fe158x8mc9" class="animable"></line><line x1="676.85" y1="170.38" x2="656.78" y2="191.32" style="fill: none; stroke: rgb(38, 50, 56); stroke-linecap: round; stroke-linejoin: round; transform-origin: 666.815px 180.85px;" id="elp2s6tkcyli" class="animable"></line></g><g id="freepik--Clock--inject-6" class="animable" style="transform-origin: 352.7px 127.3px;"><g id="elt1y260h4k0h"><circle cx="352.7" cy="127.3" r="34.3" style="fill: rgb(38, 50, 56); stroke: rgb(38, 50, 56); stroke-linejoin: round; transform-origin: 352.7px 127.3px; transform: rotate(-45deg);" class="animable"></circle></g><g id="elzpg02kt5b7"><circle cx="352.7" cy="127.3" r="31.38" style="fill: rgb(255, 255, 255); stroke: rgb(38, 50, 56); stroke-linejoin: round; transform-origin: 352.7px 127.3px; transform: rotate(-50.12deg);" class="animable"></circle></g><path d="M355.62,127.3a2.92,2.92,0,1,0-2.92,2.92A2.92,2.92,0,0,0,355.62,127.3Z" style="fill: rgb(38, 50, 56); stroke: rgb(38, 50, 56); stroke-linejoin: round; transform-origin: 352.7px 127.3px;" id="els0c9iedwk3d" class="animable"></path><line x1="355.09" y1="129.47" x2="359.66" y2="135.24" style="fill: rgb(255, 255, 255); stroke: rgb(38, 50, 56); stroke-linejoin: round; transform-origin: 357.375px 132.355px;" id="elnj4nlgipsdp" class="animable"></line><line x1="355.09" y1="125.15" x2="368.07" y2="106.63" style="fill: rgb(255, 255, 255); stroke: rgb(38, 50, 56); stroke-linejoin: round; transform-origin: 361.58px 115.89px;" id="eljqkjugjoa79" class="animable"></line></g><g id="freepik--Floor--inject-6" class="animable" style="transform-origin: 362.5px 431.86px;"><line x1="658.22" y1="431.86" x2="35" y2="431.86" style="fill: none; stroke: rgb(38, 50, 56); stroke-linejoin: round; transform-origin: 346.61px 431.86px;" id="elxgeuogirn1a" class="animable"></line><line x1="690" y1="431.86" x2="666.42" y2="431.86" style="fill: none; stroke: rgb(38, 50, 56); stroke-linejoin: round; transform-origin: 678.21px 431.86px;" id="elm50v12z43st" class="animable"></line></g><g id="freepik--Chair--inject-6" class="animable" style="transform-origin: 345.775px 350.21px;"><polygon points="305.32 436.69 300.92 436.69 300.4 354.5 305.84 354.5 305.32 436.69" style="fill: rgb(255, 255, 255); stroke: rgb(38, 50, 56); stroke-linejoin: round; transform-origin: 303.12px 395.595px;" id="ellczgfeguhkl" class="animable"></polygon><polygon points="300.42 357.98 305.82 357.98 305.84 354.5 300.4 354.5 300.42 357.98" style="fill: rgb(38, 50, 56); stroke: rgb(38, 50, 56); stroke-miterlimit: 10; transform-origin: 303.12px 356.24px;" id="el5hqcv6o7clu" class="animable"></polygon><polygon points="311.91 436.69 307.5 436.69 306.98 354.5 312.43 354.5 311.91 436.69" style="fill: rgb(38, 50, 56); stroke: rgb(38, 50, 56); stroke-miterlimit: 10; transform-origin: 309.705px 395.595px;" id="elhp2m6r2rpit" class="animable"></polygon><polygon points="389.22 436.69 384.82 436.69 384.3 354.5 389.74 354.5 389.22 436.69" style="fill: rgb(255, 255, 255); stroke: rgb(38, 50, 56); stroke-linejoin: round; transform-origin: 387.02px 395.595px;" id="el8wryyup8hkv" class="animable"></polygon><polygon points="384.32 357.98 389.72 357.98 389.74 354.5 384.3 354.5 384.32 357.98" style="fill: rgb(38, 50, 56); stroke: rgb(38, 50, 56); stroke-miterlimit: 10; transform-origin: 387.02px 356.24px;" id="elgoyha040x5p" class="animable"></polygon><polygon points="382.06 436.69 377.66 436.69 377.14 354.5 382.58 354.5 382.06 436.69" style="fill: rgb(38, 50, 56); stroke: rgb(38, 50, 56); stroke-miterlimit: 10; transform-origin: 379.86px 395.595px;" id="elye170l1ea1m" class="animable"></polygon><polygon points="391.89 348.77 299.54 348.77 311.26 330.74 380.16 330.74 391.89 348.77" style="fill: rgb(255, 255, 255); stroke: rgb(38, 50, 56); stroke-linejoin: round; transform-origin: 345.715px 339.755px;" id="elibmostlu56l" class="animable"></polygon><rect x="299.54" y="348.77" width="92.47" height="6.1" style="fill: rgb(255, 255, 255); stroke: rgb(38, 50, 56); stroke-linejoin: round; transform-origin: 345.775px 351.82px;" id="elc2db5oout6d" class="animable"></rect><path d="M317.52,263.73h56.1a6.25,6.25,0,0,1,6.25,6.25v60.76a0,0,0,0,1,0,0h-68.6a0,0,0,0,1,0,0V270A6.25,6.25,0,0,1,317.52,263.73Z" style="fill: rgb(255, 255, 255); stroke: rgb(38, 50, 56); stroke-linejoin: round; transform-origin: 345.57px 297.235px;" id="elywsjq6ltf5k" class="animable"></path></g><g id="freepik--Character--inject-6" class="animable" style="transform-origin: 469.292px 314.484px;"><polygon points="426.9 436.69 422.5 436.69 421.98 354.5 427.42 354.5 426.9 436.69" style="fill: rgb(255, 255, 255); stroke: rgb(38, 50, 56); stroke-linejoin: round; transform-origin: 424.7px 395.595px;" id="el29fbkj0klm6" class="animable"></polygon><polygon points="422 357.98 427.4 357.98 427.42 354.5 421.98 354.5 422 357.98" style="fill: rgb(38, 50, 56); stroke: rgb(38, 50, 56); stroke-miterlimit: 10; transform-origin: 424.7px 356.24px;" id="elb0sebs8vyls" class="animable"></polygon><polygon points="433.49 436.69 429.08 436.69 428.56 354.5 434 354.5 433.49 436.69" style="fill: rgb(38, 50, 56); stroke: rgb(38, 50, 56); stroke-miterlimit: 10; transform-origin: 431.28px 395.595px;" id="eliqj0y5mqks" class="animable"></polygon><polygon points="510.8 436.69 506.4 436.69 505.88 354.5 511.32 354.5 510.8 436.69" style="fill: rgb(255, 255, 255); stroke: rgb(38, 50, 56); stroke-linejoin: round; transform-origin: 508.6px 395.595px;" id="elgos8qcwklkc" class="animable"></polygon><polygon points="505.9 357.98 511.3 357.98 511.32 354.5 505.88 354.5 505.9 357.98" style="fill: rgb(38, 50, 56); stroke: rgb(38, 50, 56); stroke-miterlimit: 10; transform-origin: 508.6px 356.24px;" id="elpq1ovsyan7f" class="animable"></polygon><polygon points="503.64 436.69 499.24 436.69 498.72 354.5 504.16 354.5 503.64 436.69" style="fill: rgb(38, 50, 56); stroke: rgb(38, 50, 56); stroke-miterlimit: 10; transform-origin: 501.44px 395.595px;" id="eleoemin1x0ll" class="animable"></polygon><polygon points="513.47 348.77 421.12 348.77 432.85 330.74 501.74 330.74 513.47 348.77" style="fill: rgb(255, 255, 255); stroke: rgb(38, 50, 56); stroke-linejoin: round; transform-origin: 467.295px 339.755px;" id="elizmsr7yp0mp" class="animable"></polygon><rect x="421.12" y="348.77" width="92.47" height="6.1" style="fill: rgb(255, 255, 255); stroke: rgb(38, 50, 56); stroke-linejoin: round; transform-origin: 467.355px 351.82px;" id="el8o906toefzx" class="animable"></rect><path d="M439.1,263.73h56.1a6.25,6.25,0,0,1,6.25,6.25v60.76a0,0,0,0,1,0,0h-68.6a0,0,0,0,1,0,0V270A6.25,6.25,0,0,1,439.1,263.73Z" style="fill: rgb(255, 255, 255); stroke: rgb(38, 50, 56); stroke-linejoin: round; transform-origin: 467.15px 297.235px;" id="elaxn1dytwax" class="animable"></path><path d="M444.35,420.71a78.9,78.9,0,0,0-4.36,7.72c-.88,2.18-7,7.86-8.45,10.63s.43,5.1,7.28,5.83,9.32-3.94,10.92-6,1.61-5,3.5-6.26,5.53-4.8,5.82-8.3a17.78,17.78,0,0,0-.43-6Z" style="fill: rgb(255, 255, 255); stroke: rgb(38, 50, 56); stroke-miterlimit: 10; transform-origin: 445.114px 431.648px;" id="el0et2j82ytx47" class="animable"></path><path d="M459.06,424.35a19.31,19.31,0,0,0-.16-4.67,31.18,31.18,0,0,0-.56,3.36c-.59,5.1-6.7,7-8,9.9s-3.21,8.74-8.6,9.91c-4,.86-8.5-1.37-10.6-2.6-.38,2.23,1.85,4,7.69,4.64,6.85.72,9.32-3.94,10.92-6s1.61-5,3.5-6.26S458.77,427.85,459.06,424.35Z" style="fill: rgb(255, 255, 255); stroke: rgb(38, 50, 56); stroke-miterlimit: 10; transform-origin: 445.116px 432.322px;" id="elmmnizmfucll" class="animable"></path><path d="M492.9,420.71a78.43,78.43,0,0,1,4.37,7.72c.87,2.18,7,7.86,8.45,10.63s-.44,5.1-7.29,5.83-9.32-3.94-10.92-6-1.6-5-3.49-6.26-5.54-4.8-5.83-8.3a17.93,17.93,0,0,1,.44-6Z" style="fill: rgb(255, 255, 255); stroke: rgb(38, 50, 56); stroke-miterlimit: 10; transform-origin: 492.143px 431.648px;" id="elh3cg1flnnzh" class="animable"></path><path d="M478.19,424.35a19.84,19.84,0,0,1,.16-4.67,28.67,28.67,0,0,1,.57,3.36c.58,5.1,6.7,7,8,9.9s3.2,8.74,8.59,9.91c4,.86,8.51-1.37,10.61-2.6.37,2.23-1.86,4-7.7,4.64-6.84.72-9.32-3.94-10.92-6s-1.6-5-3.49-6.26S478.48,427.85,478.19,424.35Z" style="fill: rgb(255, 255, 255); stroke: rgb(38, 50, 56); stroke-miterlimit: 10; transform-origin: 492.14px 432.322px;" id="elpjxgklc2ka" class="animable"></path><path d="M515.09,347.74c0-4.95-13.65-23.8-13.65-23.8l-4.95-11.67-25.2,2.37H465.5l-25.2-2.37-4.95,11.67s-13.65,18.85-13.65,23.8.59,6.53.59,6.53l22,60-1.78,4.15.79,3.17s2.77,2.37,8.11,2.37a12.74,12.74,0,0,0,8.51-3.16s.59-6.53.59-8.91-4.35-13.85-4.35-16.22S452,349.91,452,349.91L467.43,339h1.93l15.46,10.93s-4.16,43.34-4.16,45.71-4.35,13.85-4.35,16.22.59,8.91.59,8.91a12.74,12.74,0,0,0,8.51,3.16c5.34,0,8.11-2.37,8.11-2.37l.8-3.17-1.79-4.15,22-60S515.09,352.68,515.09,347.74Z" style="fill: rgb(38, 50, 56); stroke: rgb(38, 50, 56); stroke-miterlimit: 10; transform-origin: 468.395px 368.115px;" id="el1l5w436o3bc" class="animable"></path><path d="M471,336.41s7.91-11.87,17.61-15.24" style="fill: none; stroke: rgb(125, 125, 125); stroke-miterlimit: 10; transform-origin: 479.805px 328.79px;" id="elwehuda9lqp" class="animable"></path><path d="M479.48,328.89s7.32-5.74,14.44-6.53" style="fill: none; stroke: rgb(125, 125, 125); stroke-miterlimit: 10; transform-origin: 486.7px 325.625px;" id="el3zsdyuxll9n" class="animable"></path><path d="M454.55,325.13s6.53,4.75,9.49,9.69" style="fill: none; stroke: rgb(125, 125, 125); stroke-miterlimit: 10; transform-origin: 459.295px 329.975px;" id="elnnb61qut2he" class="animable"></path><path d="M454,237.28l-24.14,9.1L435,290.5s1.78,22.16,3.56,23,24.93,4.55,29.28,4.35,27.5-.79,30.08-4.95,9.69-64.7,9.49-66.28-30.27-12.07-30.27-12.07Z" style="fill: rgb(146, 227, 169); stroke: rgb(38, 50, 56); stroke-linejoin: round; transform-origin: 468.637px 276.204px;" id="elpxbm9utvyqh" class="animable"></path><path d="M459.1,253.7l7.32,8.71,8.11-8.51s5.34-14.25,5.14-15.83-3.95-4.35-3.95-4.35l-13.66-.4-9.49,4.36Z" style="fill: rgb(255, 255, 255); stroke: rgb(38, 50, 56); stroke-linejoin: round; transform-origin: 466.123px 247.865px;" id="elc311y5xzkug" class="animable"></path><path d="M457.12,231,452,236.69l7.13,17,6.92-6.92,8.51,7.12s4.15-9.69,5.14-12.27a20.38,20.38,0,0,0,1-6.13L475.32,230Z" style="fill: rgb(255, 255, 255); stroke: rgb(38, 50, 56); stroke-linejoin: round; transform-origin: 466.35px 241.945px;" id="eltl9a613vxhb" class="animable"></path><polygon points="455.14 228.38 456.13 234.91 466.02 246.78 477.1 234.51 477.69 227.19 465.43 233.13 455.14 228.38" style="fill: rgb(255, 255, 255); stroke: rgb(38, 50, 56); stroke-linejoin: round; transform-origin: 466.415px 236.985px;" id="ely4enw0mg3a" class="animable"></polygon><path d="M449.4,208.79s-2,.39-1.78,3.76,5.14,7.32,5.14,7.32l-1.58-12.07Z" style="fill: rgb(255, 255, 255); stroke: rgb(38, 50, 56); stroke-linejoin: round; transform-origin: 450.182px 213.835px;" id="elrq0m0c69wr" class="animable"></path><path d="M450.79,206.22s1.78,19.78,3,21.76,8.31,9.7,11.48,10.09c1.68.21,12.66-7.32,13.45-10.48s1.79-9.3,1.79-9.3,2.37.19,3.75-5.35-.79-6.53-1.78-6.53h-1.58s-.39-8.11-1-9.69-26.91,2.18-29.28,4.15S450.79,206.22,450.79,206.22Z" style="fill: rgb(255, 255, 255); stroke: rgb(38, 50, 56); stroke-linejoin: round; transform-origin: 467.158px 217.208px;" id="elnvlfth9rnnd" class="animable"></path><path d="M472.85,217.89c0,.93-.4,1.68-.89,1.68s-.89-.75-.89-1.68.4-1.68.89-1.68S472.85,217,472.85,217.89Z" style="fill: rgb(38, 50, 56); transform-origin: 471.96px 217.89px;" id="elhkwecb0s434" class="animable"></path><path d="M459.39,217.4c0,.92-.4,1.68-.89,1.68s-.89-.76-.89-1.68.4-1.69.89-1.69S459.39,216.47,459.39,217.4Z" style="fill: rgb(38, 50, 56); transform-origin: 458.5px 217.395px;" id="elwr6si0oj9cr" class="animable"></path><path d="M463.25,223.23s-.2,1.78,1,2.38a2.72,2.72,0,0,0,3.76-2.38" style="fill: none; stroke: rgb(38, 50, 56); stroke-linejoin: round; transform-origin: 465.624px 224.524px;" id="el7ir9p6cvkm6" class="animable"></path><line x1="463.84" y1="229.37" x2="466.61" y2="229.37" style="fill: none; stroke: rgb(38, 50, 56); stroke-linejoin: round; transform-origin: 465.225px 229.37px;" id="ellkh9201dsjp" class="animable"></line><line x1="454.35" y1="213.34" x2="461.08" y2="213.34" style="fill: none; stroke: rgb(38, 50, 56); stroke-linecap: round; stroke-linejoin: round; stroke-width: 2px; transform-origin: 457.715px 213.34px;" id="elnm1vcrcl05" class="animable"></line><path d="M468,212.75s4.35-2.58,6.73,0" style="fill: none; stroke: rgb(38, 50, 56); stroke-linecap: round; stroke-linejoin: round; stroke-width: 2px; transform-origin: 471.365px 212.177px;" id="ele0nixt40ggb" class="animable"></path><line x1="455.53" y1="219.28" x2="458.9" y2="220.07" style="fill: none; stroke: rgb(38, 50, 56); stroke-linejoin: round; transform-origin: 457.215px 219.675px;" id="elc1qo4iduu36" class="animable"></line><line x1="475.12" y1="218.88" x2="471.36" y2="220.66" style="fill: none; stroke: rgb(38, 50, 56); stroke-linejoin: round; transform-origin: 473.24px 219.77px;" id="eldv3b03l2c7" class="animable"></line><path d="M481.06,189.2c-1.33-2.5-14.25-7.91-22-3.56,0,0-10.09,3.56-13.46,11.67-2.63,6.35-1.61,9.42,2.84,10.17l3.3,9.42-.4-2.77-.48-6.46c.64,0,1.32,0,2.06-.07,8.12-.59,15.24-2.37,18.8-4a16.8,16.8,0,0,0,5.34-3.56,52.61,52.61,0,0,0,0,5.74c.2,1.58,2.38,3.36,2.38,3.36l.19,6.14,1.19-.2.79-6.92,1-2.77C483.34,206.4,485.09,196.77,481.06,189.2Z" style="fill: rgb(38, 50, 56); stroke: rgb(38, 50, 56); stroke-linejoin: round; transform-origin: 463.895px 200.451px;" id="elfeqpr41gj8u" class="animable"></path><line x1="489.57" y1="263.6" x2="497.68" y2="273.69" style="fill: none; stroke: rgb(38, 50, 56); stroke-linejoin: round; transform-origin: 493.625px 268.645px;" id="el15xiwbjd9yg" class="animable"></line><path d="M495.5,260.83l3.17,23.34-30.47,4.55.2,12.27,4.94.4a14.45,14.45,0,0,0,7.92,2.77c4.35,0,26.71-2.77,30.66-3.76s6.34-2,6.73-5.74-8.11-43.33-8.7-45.9-10.29-5.54-10.29-5.54" style="fill: rgb(146, 227, 169); stroke: rgb(38, 50, 56); stroke-linejoin: round; transform-origin: 493.432px 273.69px;" id="el6581modfngh" class="animable"></path><path d="M507.77,286.35c-3.36-2.38-9.1-2.18-9.1-2.18s4.94-2.17,8.9-.79" style="fill: none; stroke: rgb(38, 50, 56); stroke-linejoin: round; transform-origin: 503.22px 284.635px;" id="elednfbhpar7j" class="animable"></path><line x1="473.34" y1="288.92" x2="473.74" y2="300.4" style="fill: none; stroke: rgb(38, 50, 56); stroke-linejoin: round; transform-origin: 473.54px 294.66px;" id="elfeonto5eeu8" class="animable"></line><path d="M468.2,288.72l-9.89-.59-12.07-5.94-2.18,1.19s-4.55,8.51-3.56,9.1,2.37,2.38,3.16,2.38,2.58-1.39,2.58-1.39,4.74,4.75,7.71,4.75a13.17,13.17,0,0,0,5.34-1.19l9.3,1.19Z" style="fill: rgb(255, 255, 255); stroke: rgb(38, 50, 56); stroke-linejoin: round; transform-origin: 454.475px 290.205px;" id="el3nhufb1c30j" class="animable"></path><polyline points="446.24 293.47 443.66 291.3 443.07 292.29" style="fill: none; stroke: rgb(38, 50, 56); stroke-linejoin: round; transform-origin: 444.655px 292.385px;" id="elqtk84dhrygo" class="animable"></polyline><rect x="460.48" y="287.73" width="2.77" height="10.09" style="fill: rgb(38, 50, 56); stroke: rgb(38, 50, 56); stroke-miterlimit: 10; transform-origin: 461.865px 292.775px;" id="elkwpnc8i0zr" class="animable"></rect><ellipse cx="461.87" cy="288.53" rx="2.77" ry="1.58" style="fill: rgb(255, 255, 255); stroke: rgb(38, 50, 56); stroke-linejoin: round; transform-origin: 461.87px 288.53px;" id="el1fw4h7701p1" class="animable"></ellipse><path d="M429.81,246.38s-9.89,55.4-9.89,58.77S434.36,323,434.36,323l6.53-6.33-4.35-19Z" style="fill: rgb(146, 227, 169); stroke: rgb(38, 50, 56); stroke-linejoin: round; transform-origin: 430.405px 284.69px;" id="elxjt3rxg7va" class="animable"></path><path d="M425.86,299.8s5.73-3.16,9.89-2.57" style="fill: none; stroke: rgb(38, 50, 56); stroke-linejoin: round; transform-origin: 430.805px 298.478px;" id="el87n1pwpbaiw" class="animable"></path><path d="M423.09,299.41s4.94-4,8.7-4" style="fill: none; stroke: rgb(38, 50, 56); stroke-linejoin: round; transform-origin: 427.44px 297.41px;" id="elfkuorc7iavc" class="animable"></path><path d="M431.4,320s-.2-5.94,8.7-6.14" style="fill: none; stroke: rgb(38, 50, 56); stroke-linejoin: round; transform-origin: 435.75px 316.93px;" id="el2mzp3ulcgx4" class="animable"></path><path d="M440.89,316.62l8.65,2.86a32.49,32.49,0,0,1,2,4.46c.71,2.15,1.79,4.29,1.79,4.83s-.18,1.25-.9,1.25-3.75-2.68-3.75-2.68l-1.78-.9s2.32,3.22,2.85,3.4a26.11,26.11,0,0,1,2.68,1.6s4.65-2.14,4.65-.35-6.79,5.71-6.79,5.71-5.72-1.07-6.79-1.78S434.36,323,434.36,323Z" style="fill: rgb(255, 255, 255); stroke: rgb(38, 50, 56); stroke-linejoin: round; transform-origin: 445.72px 326.71px;" id="elwvgp0peu1k9" class="animable"></path></g><g id="freepik--Door--inject-6" class="animable" style="transform-origin: 186.23px 247.75px;"><rect x="104.9" y="64" width="162.66" height="367.5" style="fill: rgb(255, 255, 255); stroke: rgb(38, 50, 56); stroke-linejoin: round; transform-origin: 186.23px 247.75px;" id="el5d9agotnvl4" class="animable"></rect><rect x="111.92" y="75.05" width="71.29" height="77.98" style="fill: rgb(255, 255, 255); stroke: rgb(38, 50, 56); stroke-linejoin: round; transform-origin: 147.565px 114.04px;" id="el5ryvrvvktx8" class="animable"></rect><rect x="120.43" y="84.35" width="54.29" height="59.38" style="fill: rgb(255, 255, 255); stroke: rgb(38, 50, 56); stroke-linejoin: round; transform-origin: 147.575px 114.04px;" id="elm80d3ztqtb" class="animable"></rect><line x1="120.43" y1="84.35" x2="111.92" y2="75.05" style="fill: rgb(255, 255, 255); stroke: rgb(38, 50, 56); stroke-linejoin: round; transform-origin: 116.175px 79.7px;" id="elbuaji2bhnwe" class="animable"></line><line x1="120.43" y1="143.73" x2="111.92" y2="153.03" style="fill: rgb(255, 255, 255); stroke: rgb(38, 50, 56); stroke-linejoin: round; transform-origin: 116.175px 148.38px;" id="elni60r2hhcl8" class="animable"></line><line x1="174.71" y1="84.35" x2="183.22" y2="75.05" style="fill: rgb(255, 255, 255); stroke: rgb(38, 50, 56); stroke-linejoin: round; transform-origin: 178.965px 79.7px;" id="elofgyme09ky" class="animable"></line><line x1="174.71" y1="143.73" x2="183.22" y2="153.03" style="fill: rgb(255, 255, 255); stroke: rgb(38, 50, 56); stroke-linejoin: round; transform-origin: 178.965px 148.38px;" id="ele9gitp7qkok" class="animable"></line><rect x="188.94" y="75.05" width="71.29" height="77.98" style="fill: rgb(255, 255, 255); stroke: rgb(38, 50, 56); stroke-linejoin: round; transform-origin: 224.585px 114.04px;" id="elmmjvxot45go" class="animable"></rect><rect x="197.44" y="84.35" width="54.29" height="59.38" style="fill: rgb(255, 255, 255); stroke: rgb(38, 50, 56); stroke-linejoin: round; transform-origin: 224.585px 114.04px;" id="el6ejpz9hzaga" class="animable"></rect><line x1="197.44" y1="84.35" x2="188.94" y2="75.05" style="fill: rgb(255, 255, 255); stroke: rgb(38, 50, 56); stroke-linejoin: round; transform-origin: 193.19px 79.7px;" id="el314e85a0w3p" class="animable"></line><line x1="197.44" y1="143.73" x2="188.94" y2="153.03" style="fill: rgb(255, 255, 255); stroke: rgb(38, 50, 56); stroke-linejoin: round; transform-origin: 193.19px 148.38px;" id="elgnimsjwjbrt" class="animable"></line><line x1="251.73" y1="84.35" x2="260.23" y2="75.05" style="fill: rgb(255, 255, 255); stroke: rgb(38, 50, 56); stroke-linejoin: round; transform-origin: 255.98px 79.7px;" id="elj4d2z878r69" class="animable"></line><line x1="251.73" y1="143.73" x2="260.23" y2="153.03" style="fill: rgb(255, 255, 255); stroke: rgb(38, 50, 56); stroke-linejoin: round; transform-origin: 255.98px 148.38px;" id="elcuaa9pca8sh" class="animable"></line><rect x="111.92" y="161.06" width="71.29" height="77.98" style="fill: rgb(255, 255, 255); stroke: rgb(38, 50, 56); stroke-linejoin: round; transform-origin: 147.565px 200.05px;" id="elvj9lp66xg8" class="animable"></rect><rect x="120.43" y="170.36" width="54.29" height="59.38" style="fill: rgb(255, 255, 255); stroke: rgb(38, 50, 56); stroke-linejoin: round; transform-origin: 147.575px 200.05px;" id="elpiwyteczao" class="animable"></rect><line x1="120.43" y1="170.36" x2="111.92" y2="161.06" style="fill: rgb(255, 255, 255); stroke: rgb(38, 50, 56); stroke-linejoin: round; transform-origin: 116.175px 165.71px;" id="elcjfu3c0oyf" class="animable"></line><line x1="120.43" y1="229.75" x2="111.92" y2="239.05" style="fill: rgb(255, 255, 255); stroke: rgb(38, 50, 56); stroke-linejoin: round; transform-origin: 116.175px 234.4px;" id="elljvjm1rdes" class="animable"></line><line x1="174.71" y1="170.36" x2="183.22" y2="161.06" style="fill: rgb(255, 255, 255); stroke: rgb(38, 50, 56); stroke-linejoin: round; transform-origin: 178.965px 165.71px;" id="el8x3lk5zbqw2" class="animable"></line><line x1="174.71" y1="229.75" x2="183.22" y2="239.05" style="fill: rgb(255, 255, 255); stroke: rgb(38, 50, 56); stroke-linejoin: round; transform-origin: 178.965px 234.4px;" id="elbb7b7no935l" class="animable"></line><rect x="188.94" y="161.06" width="71.29" height="77.98" style="fill: rgb(255, 255, 255); stroke: rgb(38, 50, 56); stroke-linejoin: round; transform-origin: 224.585px 200.05px;" id="eldcxyugvm88i" class="animable"></rect><rect x="197.44" y="170.36" width="54.29" height="59.38" style="fill: rgb(255, 255, 255); stroke: rgb(38, 50, 56); stroke-linejoin: round; transform-origin: 224.585px 200.05px;" id="eled2vwvb2xpq" class="animable"></rect><line x1="197.44" y1="170.36" x2="188.94" y2="161.06" style="fill: rgb(255, 255, 255); stroke: rgb(38, 50, 56); stroke-linejoin: round; transform-origin: 193.19px 165.71px;" id="elgykixt2kid8" class="animable"></line><line x1="197.44" y1="229.75" x2="188.94" y2="239.05" style="fill: rgb(255, 255, 255); stroke: rgb(38, 50, 56); stroke-linejoin: round; transform-origin: 193.19px 234.4px;" id="elsk96zw51lol" class="animable"></line><line x1="251.73" y1="170.36" x2="260.23" y2="161.06" style="fill: rgb(255, 255, 255); stroke: rgb(38, 50, 56); stroke-linejoin: round; transform-origin: 255.98px 165.71px;" id="eli0p0nmei9i" class="animable"></line><line x1="251.73" y1="229.75" x2="260.23" y2="239.05" style="fill: rgb(255, 255, 255); stroke: rgb(38, 50, 56); stroke-linejoin: round; transform-origin: 255.98px 234.4px;" id="elawz7mrn2ced" class="animable"></line><rect x="111.92" y="256.12" width="71.29" height="77.98" style="fill: rgb(255, 255, 255); stroke: rgb(38, 50, 56); stroke-linejoin: round; transform-origin: 147.565px 295.11px;" id="elnm525ofdpci" class="animable"></rect><rect x="120.43" y="265.42" width="54.29" height="59.38" style="fill: rgb(255, 255, 255); stroke: rgb(38, 50, 56); stroke-linejoin: round; transform-origin: 147.575px 295.11px;" id="elzlxq27zajq" class="animable"></rect><line x1="120.43" y1="265.42" x2="111.92" y2="256.12" style="fill: rgb(255, 255, 255); stroke: rgb(38, 50, 56); stroke-linejoin: round; transform-origin: 116.175px 260.77px;" id="el3g75lhbwk8r" class="animable"></line><line x1="120.43" y1="324.8" x2="111.92" y2="334.1" style="fill: rgb(255, 255, 255); stroke: rgb(38, 50, 56); stroke-linejoin: round; transform-origin: 116.175px 329.45px;" id="elqkutqec3qqk" class="animable"></line><line x1="174.71" y1="265.42" x2="183.22" y2="256.12" style="fill: rgb(255, 255, 255); stroke: rgb(38, 50, 56); stroke-linejoin: round; transform-origin: 178.965px 260.77px;" id="eln4hi9qhmibi" class="animable"></line><line x1="174.71" y1="324.8" x2="183.22" y2="334.1" style="fill: rgb(255, 255, 255); stroke: rgb(38, 50, 56); stroke-linejoin: round; transform-origin: 178.965px 329.45px;" id="el5mfzd7keqk" class="animable"></line><rect x="188.94" y="256.12" width="71.29" height="77.98" style="fill: rgb(255, 255, 255); stroke: rgb(38, 50, 56); stroke-linejoin: round; transform-origin: 224.585px 295.11px;" id="elldnunq6qdu" class="animable"></rect><rect x="197.44" y="265.42" width="54.29" height="59.38" style="fill: rgb(255, 255, 255); stroke: rgb(38, 50, 56); stroke-linejoin: round; transform-origin: 224.585px 295.11px;" id="elsv7qqmrzf3l" class="animable"></rect><line x1="197.44" y1="265.42" x2="188.94" y2="256.12" style="fill: rgb(255, 255, 255); stroke: rgb(38, 50, 56); stroke-linejoin: round; transform-origin: 193.19px 260.77px;" id="el1j7q6lvjus6" class="animable"></line><line x1="197.44" y1="324.8" x2="188.94" y2="334.1" style="fill: rgb(255, 255, 255); stroke: rgb(38, 50, 56); stroke-linejoin: round; transform-origin: 193.19px 329.45px;" id="elbzytxmjcba" class="animable"></line><line x1="251.73" y1="265.42" x2="260.23" y2="256.12" style="fill: rgb(255, 255, 255); stroke: rgb(38, 50, 56); stroke-linejoin: round; transform-origin: 255.98px 260.77px;" id="el1casgv3vj8g" class="animable"></line><line x1="251.73" y1="324.8" x2="260.23" y2="334.1" style="fill: rgb(255, 255, 255); stroke: rgb(38, 50, 56); stroke-linejoin: round; transform-origin: 255.98px 329.45px;" id="elt6tjj24484a" class="animable"></line><rect x="111.92" y="342.14" width="71.29" height="77.98" style="fill: rgb(255, 255, 255); stroke: rgb(38, 50, 56); stroke-linejoin: round; transform-origin: 147.565px 381.13px;" id="elomwnwe4lnng" class="animable"></rect><rect x="120.43" y="351.44" width="54.29" height="59.38" style="fill: rgb(255, 255, 255); stroke: rgb(38, 50, 56); stroke-linejoin: round; transform-origin: 147.575px 381.13px;" id="elpt5h4wettvj" class="animable"></rect><line x1="120.43" y1="351.44" x2="111.92" y2="342.14" style="fill: rgb(255, 255, 255); stroke: rgb(38, 50, 56); stroke-linejoin: round; transform-origin: 116.175px 346.79px;" id="eldh9cz2fy6um" class="animable"></line><line x1="120.43" y1="410.82" x2="111.92" y2="420.12" style="fill: rgb(255, 255, 255); stroke: rgb(38, 50, 56); stroke-linejoin: round; transform-origin: 116.175px 415.47px;" id="el5pv99vfmekq" class="animable"></line><line x1="174.71" y1="351.44" x2="183.22" y2="342.14" style="fill: rgb(255, 255, 255); stroke: rgb(38, 50, 56); stroke-linejoin: round; transform-origin: 178.965px 346.79px;" id="el79no4jb6t8d" class="animable"></line><line x1="174.71" y1="410.82" x2="183.22" y2="420.12" style="fill: rgb(255, 255, 255); stroke: rgb(38, 50, 56); stroke-linejoin: round; transform-origin: 178.965px 415.47px;" id="el9j3fdq7n4ea" class="animable"></line><rect x="188.94" y="342.14" width="71.29" height="77.98" style="fill: rgb(255, 255, 255); stroke: rgb(38, 50, 56); stroke-linejoin: round; transform-origin: 224.585px 381.13px;" id="eldjo7uvnyoei" class="animable"></rect><rect x="197.44" y="351.44" width="54.29" height="59.38" style="fill: rgb(255, 255, 255); stroke: rgb(38, 50, 56); stroke-linejoin: round; transform-origin: 224.585px 381.13px;" id="els8v3yo4k2yt" class="animable"></rect><line x1="197.44" y1="351.44" x2="188.94" y2="342.14" style="fill: rgb(255, 255, 255); stroke: rgb(38, 50, 56); stroke-linejoin: round; transform-origin: 193.19px 346.79px;" id="eluz1wzv3mpms" class="animable"></line><line x1="197.44" y1="410.82" x2="188.94" y2="420.12" style="fill: rgb(255, 255, 255); stroke: rgb(38, 50, 56); stroke-linejoin: round; transform-origin: 193.19px 415.47px;" id="elxwvuzccq4q" class="animable"></line><line x1="251.73" y1="351.44" x2="260.23" y2="342.14" style="fill: rgb(255, 255, 255); stroke: rgb(38, 50, 56); stroke-linejoin: round; transform-origin: 255.98px 346.79px;" id="el5fs1duk5ujp" class="animable"></line><line x1="251.73" y1="410.82" x2="260.23" y2="420.12" style="fill: rgb(255, 255, 255); stroke: rgb(38, 50, 56); stroke-linejoin: round; transform-origin: 255.98px 415.47px;" id="elozz906hf4k9" class="animable"></line><g id="el4ic71dxhf4c"><circle cx="255.18" cy="247.41" r="7.36" style="fill: rgb(255, 255, 255); stroke: rgb(38, 50, 56); stroke-linejoin: round; transform-origin: 255.18px 247.41px; transform: rotate(-9.24deg);" class="animable"></circle></g><path d="M257.85,247.41a2.68,2.68,0,1,0-2.67,2.68A2.68,2.68,0,0,0,257.85,247.41Z" style="fill: rgb(255, 255, 255); stroke: rgb(38, 50, 56); stroke-linejoin: round; transform-origin: 255.17px 247.41px;" id="ele6ck6l4k4l" class="animable"></path></g><defs>     <filter id="active" height="200%">         <feMorphology in="SourceAlpha" result="DILATED" operator="dilate" radius="2"></feMorphology>                <feFlood flood-color="#32DFEC" flood-opacity="1" result="PINK"></feFlood>        <feComposite in="PINK" in2="DILATED" operator="in" result="OUTLINE"></feComposite>        <feMerge>            <feMergeNode in="OUTLINE"></feMergeNode>            <feMergeNode in="SourceGraphic"></feMergeNode>        </feMerge>    </filter>    <filter id="hover" height="200%">        <feMorphology in="SourceAlpha" result="DILATED" operator="dilate" radius="2"></feMorphology>                <feFlood flood-color="#ff0000" flood-opacity="0.5" result="PINK"></feFlood>        <feComposite in="PINK" in2="DILATED" operator="in" result="OUTLINE"></feComposite>        <feMerge>            <feMergeNode in="OUTLINE"></feMergeNode>            <feMergeNode in="SourceGraphic"></feMergeNode>        </feMerge>            <feColorMatrix type="matrix" values="0   0   0   0   0                0   1   0   0   0                0   0   0   0   0                0   0   0   1   0 "></feColorMatrix>    </filter></defs></svg>